<svg xmlns="http://www.w3.org/2000/svg" viewBox="0 0 64 64">
    <path
        d="M 13 2 C 11.346 2 10 3.346 10 5 L 10 61 C 10 61.552 10.448 62 11 62 L 15 62 L 49 62 L 53 62 C 53.552 62 54 61.552 54 61 L 54 5 C 54 3.346 52.654 2 51 2 L 13 2 z M 13 4 L 51 4 C 51.551 4 52 4.449 52 5 L 52 60 L 50 60 L 50 7 C 50 6.448 49.552 6 49 6 L 15 6 C 14.448 6 14 6.448 14 7 L 14 60 L 12 60 L 12 5 C 12 4.449 12.449 4 13 4 z M 16 8 L 48 8 L 48 60 L 16 60 L 16 8 z M 19 11 C 18.448 11 18 11.448 18 12 C 18 12.552 18.448 13 19 13 L 21 13 C 21.552 13 22 12.552 22 12 C 22 11.448 21.552 11 21 11 L 19 11 z M 19 16 C 18.448 16 18 16.448 18 17 C 18 17.552 18.448 18 19 18 L 21 18 C 21.552 18 22 17.552 22 17 C 22 16.448 21.552 16 21 16 L 19 16 z M 19 21 C 18.448 21 18 21.448 18 22 C 18 22.552 18.448 23 19 23 L 21 23 C 21.552 23 22 22.552 22 22 C 22 21.448 21.552 21 21 21 L 19 21 z M 19 26 C 18.448 26 18 26.448 18 27 C 18 27.552 18.448 28 19 28 L 21 28 C 21.552 28 22 27.552 22 27 C 22 26.448 21.552 26 21 26 L 19 26 z M 42 28 C 40.897 28 40 28.897 40 30 L 40 36 C 40 37.103 40.897 38 42 38 L 44 38 C 44.552 38 45 37.552 45 37 C 45 36.448 44.552 36 44 36 L 42 36 L 42 30 L 44 30 C 44.552 30 45 29.552 45 29 C 45 28.448 44.552 28 44 28 L 42 28 z M 19 31 C 18.448 31 18 31.448 18 32 C 18 32.552 18.448 33 19 33 L 21 33 C 21.552 33 22 32.552 22 32 C 22 31.448 21.552 31 21 31 L 19 31 z M 19 36 C 18.448 36 18 36.448 18 37 C 18 37.552 18.448 38 19 38 L 21 38 C 21.552 38 22 37.552 22 37 C 22 36.448 21.552 36 21 36 L 19 36 z M 19 41 C 18.448 41 18 41.448 18 42 C 18 42.552 18.448 43 19 43 L 21 43 C 21.552 43 22 42.552 22 42 C 22 41.448 21.552 41 21 41 L 19 41 z M 19 46 C 18.448 46 18 46.448 18 47 C 18 47.552 18.448 48 19 48 L 21 48 C 21.552 48 22 47.552 22 47 C 22 46.448 21.552 46 21 46 L 19 46 z M 19 51 C 18.448 51 18 51.448 18 52 C 18 52.552 18.448 53 19 53 L 21 53 C 21.552 53 22 52.552 22 52 C 22 51.448 21.552 51 21 51 L 19 51 z M 19 56 C 18.448 56 18 56.448 18 57 C 18 57.552 18.448 58 19 58 L 21 58 C 21.552 58 22 57.552 22 57 C 22 56.448 21.552 56 21 56 L 19 56 z">
    </path>
</svg>