<svg xmlns="http://www.w3.org/2000/svg">
    <path
        d="M 11 4 C 9.347656 4 8 5.347656 8 7 C 8 8.652344 9.347656 10 11 10 L 14.230469 10 L 16.574219 18.878906 C 17.582031 22.710938 20.011719 25.929688 23.417969 27.953125 L 25.511719 29.195313 C 25.8125 29.375 26 29.707031 26 30.058594 L 26 33.890625 C 26 34.238281 25.824219 34.554688 25.53125 34.738281 L 23.15625 36.222656 C 20.367188 37.96875 18.261719 40.546875 17.101563 43.585938 C 17.089844 43.613281 17.074219 43.640625 17.0625 43.671875 C 16.890625 44.128906 16.738281 44.601563 16.609375 45.078125 L 14.234375 54 L 11 54 C 9.347656 54 8 55.347656 8 57 C 8 58.652344 9.347656 60 11 60 L 53 60 C 54.652344 60 56 58.652344 56 57 C 56 55.347656 54.652344 54 53 54 L 49.769531 54 L 47.402344 45.066406 C 46.410156 41.332031 44.050781 38.160156 40.757813 36.136719 L 38.476563 34.734375 C 38.183594 34.550781 38 34.226563 38 33.882813 L 38 30.214844 C 38 29.863281 38.183594 29.535156 38.484375 29.355469 L 40.65625 28.046875 C 44.011719 26.015625 46.414063 22.808594 47.40625 19.011719 L 49.769531 10 L 53 10 C 54.652344 10 56 8.652344 56 7 C 56 5.347656 54.652344 4 53 4 Z M 11 6 L 53 6 C 53.550781 6 54 6.449219 54 7 C 54 7.550781 53.550781 8 53 8 L 11 8 C 10.449219 8 10 7.550781 10 7 C 10 6.449219 10.449219 6 11 6 Z M 16.296875 10 L 47.703125 10 L 45.472656 18.5 C 44.613281 21.792969 42.53125 24.570313 39.621094 26.328125 L 37.449219 27.640625 C 36.554688 28.183594 36 29.167969 36 30.210938 L 36 33.878906 C 36 34.914063 36.546875 35.894531 37.429688 36.4375 L 39.710938 37.839844 C 41.441406 38.902344 42.867188 40.335938 43.921875 42.019531 L 40.269531 40.457031 C 35.015625 38.203125 28.988281 38.203125 23.730469 40.457031 L 20.121094 42.003906 C 21.152344 40.367188 22.539063 38.96875 24.214844 37.921875 L 26.589844 36.4375 C 27.472656 35.882813 28 34.929688 28 33.890625 L 28 30.054688 C 28 29 27.4375 28.011719 26.53125 27.472656 L 24.4375 26.234375 C 21.488281 24.480469 19.378906 21.6875 18.503906 18.371094 L 17.355469 14 L 35 14 C 35.550781 14 36 13.550781 36 13 C 36 12.449219 35.550781 12 35 12 L 17 12 C 16.941406 12 16.890625 12.023438 16.832031 12.03125 Z M 39 12 C 38.449219 12 38 12.449219 38 13 C 38 13.550781 38.449219 14 39 14 L 43 14 C 43.550781 14 44 13.550781 44 13 C 44 12.449219 43.550781 12 43 12 Z M 32 40.765625 C 34.554688 40.765625 37.105469 41.277344 39.484375 42.296875 L 45.203125 44.746094 C 45.296875 45.023438 45.394531 45.296875 45.46875 45.582031 L 46.21875 48.40625 C 46.089844 48.574219 46 48.773438 46 49 L 46 51 C 46 51.550781 46.449219 52 47 52 C 47.058594 52 47.105469 51.976563 47.160156 51.96875 L 47.699219 54 L 16.300781 54 L 16.84375 51.96875 C 16.898438 51.976563 16.945313 52 17 52 C 17.550781 52 18 51.550781 18 51 L 18 49 C 18 48.777344 17.914063 48.582031 17.792969 48.417969 L 18.542969 45.59375 C 18.621094 45.304688 18.71875 45.019531 18.8125 44.738281 L 24.515625 42.296875 C 26.894531 41.277344 29.445313 40.765625 32 40.765625 Z M 22 48 C 21.449219 48 21 48.449219 21 49 L 21 51 C 21 51.550781 21.449219 52 22 52 C 22.550781 52 23 51.550781 23 51 L 23 49 C 23 48.449219 22.550781 48 22 48 Z M 27 48 C 26.449219 48 26 48.449219 26 49 L 26 51 C 26 51.550781 26.449219 52 27 52 C 27.550781 52 28 51.550781 28 51 L 28 49 C 28 48.449219 27.550781 48 27 48 Z M 32 48 C 31.449219 48 31 48.449219 31 49 L 31 51 C 31 51.550781 31.449219 52 32 52 C 32.550781 52 33 51.550781 33 51 L 33 49 C 33 48.449219 32.550781 48 32 48 Z M 37 48 C 36.449219 48 36 48.449219 36 49 L 36 51 C 36 51.550781 36.449219 52 37 52 C 37.550781 52 38 51.550781 38 51 L 38 49 C 38 48.449219 37.550781 48 37 48 Z M 42 48 C 41.449219 48 41 48.449219 41 49 L 41 51 C 41 51.550781 41.449219 52 42 52 C 42.550781 52 43 51.550781 43 51 L 43 49 C 43 48.449219 42.550781 48 42 48 Z M 11 56 L 53 56 C 53.550781 56 54 56.449219 54 57 C 54 57.550781 53.550781 58 53 58 L 11 58 C 10.449219 58 10 57.550781 10 57 C 10 56.449219 10.449219 56 11 56 Z ">
    </path>
</svg>