<svg width="207" height="67" viewBox="0 0 207 67" fill="none" xmlns="http://www.w3.org/2000/svg">
<circle cx="32.5" cy="34.5" r="32.5" fill="#F7C744"/>
<circle cx="31.2859" cy="31.8388" r="15.8388" fill="#010101"/>
<rect width="15.7123" height="18.1015" transform="matrix(-0.68501 0.728533 0.728533 0.68501 39.7863 28.9297)" fill="#010101"/>
<path d="M107.528 20.792C110.76 20.792 113.32 21.752 115.208 23.672C117.128 25.56 118.088 28.408 118.088 32.216V47H110.6V33.368C110.6 31.32 110.168 29.8 109.304 28.808C108.472 27.784 107.272 27.272 105.704 27.272C103.944 27.272 102.552 27.848 101.528 29C100.504 30.12 99.992 31.8 99.992 34.04V47H92.504V33.368C92.504 29.304 90.872 27.272 87.608 27.272C85.88 27.272 84.504 27.848 83.48 29C82.456 30.12 81.944 31.8 81.944 34.04V47H74.456V21.176H81.608V24.152C82.568 23.064 83.736 22.232 85.112 21.656C86.52 21.08 88.056 20.792 89.72 20.792C91.544 20.792 93.192 21.16 94.664 21.896C96.136 22.6 97.32 23.64 98.216 25.016C99.272 23.672 100.6 22.632 102.2 21.896C103.832 21.16 105.608 20.792 107.528 20.792ZM135.216 20.792C139.216 20.792 142.288 21.752 144.432 23.672C146.576 25.56 147.648 28.424 147.648 32.264V47H140.64V43.784C139.232 46.184 136.608 47.384 132.768 47.384C130.784 47.384 129.056 47.048 127.584 46.376C126.144 45.704 125.04 44.776 124.272 43.592C123.504 42.408 123.12 41.064 123.12 39.56C123.12 37.16 124.016 35.272 125.808 33.896C127.632 32.52 130.432 31.832 134.208 31.832H140.16C140.16 30.2 139.664 28.952 138.672 28.088C137.68 27.192 136.192 26.744 134.208 26.744C132.832 26.744 131.472 26.968 130.128 27.416C128.816 27.832 127.696 28.408 126.768 29.144L124.08 23.912C125.488 22.92 127.168 22.152 129.12 21.608C131.104 21.064 133.136 20.792 135.216 20.792ZM134.64 42.344C135.92 42.344 137.056 42.056 138.048 41.48C139.04 40.872 139.744 39.992 140.16 38.84V36.2H135.024C131.952 36.2 130.416 37.208 130.416 39.224C130.416 40.184 130.784 40.952 131.52 41.528C132.288 42.072 133.328 42.344 134.64 42.344ZM175.689 41.24V47H152.649V42.488L165.801 26.936H152.985V21.176H175.257V25.688L162.105 41.24H175.689ZM205.455 34.184C205.455 34.28 205.407 34.952 205.311 36.2H185.775C186.127 37.8 186.959 39.064 188.271 39.992C189.583 40.92 191.215 41.384 193.167 41.384C194.511 41.384 195.695 41.192 196.719 40.808C197.775 40.392 198.751 39.752 199.647 38.888L203.631 43.208C201.199 45.992 197.647 47.384 192.975 47.384C190.063 47.384 187.487 46.824 185.247 45.704C183.007 44.552 181.279 42.968 180.063 40.952C178.847 38.936 178.239 36.648 178.239 34.088C178.239 31.56 178.831 29.288 180.015 27.272C181.231 25.224 182.879 23.64 184.959 22.52C187.071 21.368 189.423 20.792 192.015 20.792C194.543 20.792 196.831 21.336 198.879 22.424C200.927 23.512 202.527 25.08 203.679 27.128C204.863 29.144 205.455 31.496 205.455 34.184ZM192.063 26.456C190.367 26.456 188.943 26.936 187.791 27.896C186.639 28.856 185.935 30.168 185.679 31.832H198.399C198.143 30.2 197.439 28.904 196.287 27.944C195.135 26.952 193.727 26.456 192.063 26.456Z" fill="white"/>
</svg>
